<?xml version="1.0" standalone="no"?>
<!DOCTYPE svg PUBLIC "-//W3C//DTD SVG 20010904//EN"
 "http://www.w3.org/TR/2001/REC-SVG-20010904/DTD/svg10.dtd">
<svg version="1.0" xmlns="http://www.w3.org/2000/svg"
 width="256.000000pt" height="256.000000pt" viewBox="0 0 256.000000 256.000000"
 preserveAspectRatio="xMidYMid meet">
<metadata>
Created by potrace 1.11, written by Peter Selinger 2001-2013
</metadata>
<g transform="translate(0.000000,256.000000) scale(0.100000,-0.100000)"
fill="#000000" stroke="none">
<path d="M230 2113 c1 -20 17 -97 50 -243 12 -52 26 -117 32 -145 5 -27 12
-57 16 -65 6 -16 17 -61 51 -217 12 -51 30 -135 42 -185 11 -51 25 -120 32
-153 6 -33 14 -62 17 -65 4 -3 13 -41 20 -85 7 -44 16 -84 20 -90 4 -5 11 -35
15 -65 4 -30 11 -60 15 -65 5 -6 12 -37 17 -70 l8 -60 262 -3 261 -2 10 47 c6
27 13 66 17 88 4 22 10 49 15 60 5 11 14 43 19 70 6 28 20 88 31 135 11 47 27
119 35 160 9 41 22 97 30 124 8 26 15 56 15 66 0 25 10 50 21 50 5 0 9 -9 9
-20 0 -11 4 -28 9 -38 5 -9 16 -51 24 -92 9 -41 25 -115 36 -165 11 -49 25
-112 31 -140 6 -27 15 -59 20 -70 5 -11 14 -54 21 -95 6 -41 15 -79 19 -85 4
-5 11 -29 15 -53 l7 -42 261 2 262 3 17 85 c18 93 50 240 73 335 8 33 23 101
33 150 11 50 23 97 26 105 3 8 13 49 21 90 7 41 21 104 30 140 9 36 23 99 31
140 8 41 19 84 24 95 5 11 13 45 19 75 6 30 19 98 31 150 11 52 23 110 27 128
l6 32 -249 -2 -249 -3 -11 -90 c-21 -168 -35 -260 -50 -335 -8 -41 -18 -111
-23 -155 -5 -44 -16 -129 -25 -190 -8 -60 -16 -125 -18 -144 -4 -43 -24 -51
-31 -14 -3 15 -13 62 -21 103 -34 175 -48 246 -54 260 -3 8 -14 56 -23 105
-10 50 -23 116 -29 148 l-12 57 -263 0 -262 0 -13 -92 c-7 -51 -16 -97 -20
-103 -4 -5 -13 -46 -19 -90 -7 -44 -16 -89 -21 -100 -5 -11 -14 -49 -20 -85
-15 -93 -39 -212 -47 -230 -7 -18 -27 84 -48 255 -8 66 -18 131 -21 145 -9 32
-29 170 -49 330 -9 69 -20 138 -25 154 -6 16 -10 40 -10 52 l0 24 -245 0
c-227 0 -245 -1 -245 -17z"/>
</g>
</svg>
